<?xml version="1.0" encoding="UTF-8" standalone="no"?>
<!-- Created with Inkscape (http://www.inkscape.org/) -->

<svg
   width="56.216759mm"
   height="56.216759mm"
   viewBox="0 0 56.216757 56.216759"
   version="1.1"
   id="svg5"
   inkscape:version="1.2.2 (b0a8486541, 2022-12-01)"
   sodipodi:docname="favicon.svg"
   xmlns:inkscape="http://www.inkscape.org/namespaces/inkscape"
   xmlns:sodipodi="http://sodipodi.sourceforge.net/DTD/sodipodi-0.dtd"
   xmlns="http://www.w3.org/2000/svg"
   xmlns:svg="http://www.w3.org/2000/svg">
  <sodipodi:namedview
     id="namedview7"
     pagecolor="#ffffff"
     bordercolor="#666666"
     borderopacity="1.0"
     inkscape:showpageshadow="2"
     inkscape:pageopacity="0"
     inkscape:pagecheckerboard="0"
     inkscape:deskcolor="#d1d1d1"
     inkscape:document-units="mm"
     showgrid="false"
     inkscape:zoom="2.149246"
     inkscape:cx="-9.305589"
     inkscape:cy="38.618194"
     inkscape:window-width="1920"
     inkscape:window-height="1131"
     inkscape:window-x="0"
     inkscape:window-y="0"
     inkscape:window-maximized="1"
     inkscape:current-layer="layer1" />
  <defs
     id="defs2">
    <rect
       x="182.14978"
       y="169.88068"
       width="232.517"
       height="79.842117"
       id="rect1516" />
  </defs>
  <g
     inkscape:label="Layer 1"
     inkscape:groupmode="layer"
     id="layer1"
     transform="translate(-29.946331,-23.342808)">
    <circle
       style="fill:#57ab27;fill-opacity:1;stroke-width:1.48706;paint-order:markers fill stroke"
       id="path1730-6-1"
       cx="58.05471"
       cy="51.451187"
       r="28.108379" />
    <path
       id="path3966-9-1"
       style="fill:#ffffff;stroke-width:1.25619;paint-order:markers fill stroke"
       inkscape:transform-center-x="-3.782124"
       inkscape:transform-center-y="-4.3700306"
       d="m 80.920792,53.466318 c -0.470466,3.311904 -13.350103,2.12902 -13.587434,2.635683 -0.679604,1.45084 3.938362,4.608269 6.042483,9.523902 1.290814,3.015588 -7.047323,-4.101451 -9.96792,-2.601752 -2.920596,1.499698 1.923956,15.743775 -1.35023,16.024675 -3.274187,0.2809 -5.545456,-15.647445 -6.494518,-16.033885 0,0 -14.24792,4.094643 -12.199826,1.483245 2.677707,-3.414185 9.25763,-4.828116 7.202174,-7.479738 -1.999671,-2.579656 -17.963879,8.442198 -19.103134,5.432682 -1.139256,-3.009516 14.035148,-8.666125 13.827521,-10.163424 -0.228782,-1.649843 -14.98569,-4.161215 -14.129021,-7.377038 0.856668,-3.215822 16.386111,0.75886 17.148239,-0.297092 0.816496,-1.131285 -6.937786,-9.696012 -4.409117,-11.776169 2.528672,-2.080158 9.745361,8.500431 10.087158,5.182534 0.123275,-1.196669 -2.960867,-14.105709 0.371765,-14.334482 3.332631,-0.228774 7.580901,13.354936 8.041922,13.749376 0.699867,0.598794 5.430215,-12.068543 8.236543,-10.279927 2.806326,1.788615 -4.56826,14.76871 -4.56889,14.956184 -8.48e-4,0.253286 17.004343,-6.237848 18.142636,-3.187729 1.13829,3.050119 -13.372314,8.616356 -13.110355,9.467028 0.306445,1.091863 10.29047,1.764021 9.820004,5.075927 z"
       sodipodi:nodetypes="ssssssssssssssssssscs" />
    <path
       sodipodi:type="star"
       style="fill:#57ab27;fill-opacity:1;stroke-width:0.551392;paint-order:markers fill stroke"
       id="path6994"
       inkscape:flatsided="false"
       sodipodi:sides="8"
       sodipodi:cx="55.687187"
       sodipodi:cy="56.318855"
       sodipodi:r1="10.57478"
       sodipodi:r2="5.2873902"
       sodipodi:arg1="0.47788294"
       sodipodi:arg2="0.87058202"
       inkscape:rounded="0.5"
       inkscape:randomized="0.129"
       d="m 65.047164,60.016711 c -1.043329,2.898852 -4.58494,-0.903394 -7.278213,0.616665 -2.693273,1.520059 3.29224,6.067166 0.367555,6.407593 -2.924685,0.340427 0.630911,-6.090507 -2.288698,-6.186604 -2.919608,-0.0961 -2.860116,5.86842 -5.572988,4.998628 -2.712872,-0.869792 3.356668,-2.945529 1.635993,-5.647407 -1.720675,-2.701878 -5.056026,0.874989 -6.446919,-1.853343 -1.390894,-2.728333 5.701768,1.667645 5.601562,-1.509319 -0.100206,-3.176963 -5.011127,-1.483341 -3.626569,-4.163713 1.384558,-2.680371 2.490677,3.259555 4.40284,0.852349 1.912162,-2.407207 -3.184342,-6.105625 -0.367555,-6.407593 2.816787,-0.301968 1.987545,4.704949 5.164071,4.71759 3.176526,0.01264 0.335826,-7.989334 2.697614,-6.257907 2.361789,1.731427 -0.301995,4.45675 1.239381,6.906686 1.541377,2.449936 5.616663,-1.066225 6.44692,1.853343 0.830256,2.919568 -5.402008,-1.40305 -5.601563,1.509319 -0.199555,2.912368 4.669898,1.264861 3.626569,4.163713 z"
       inkscape:transform-center-x="0.14670795"
       inkscape:transform-center-y="-0.080514039"
       transform="matrix(1.0087409,0,0,1.0087409,2.0271192,-6.9908862)" />
    <path
       sodipodi:type="star"
       style="fill:#ffffff;fill-opacity:1;stroke-width:0.551392;paint-order:markers fill stroke"
       id="path6994-80"
       inkscape:flatsided="false"
       sodipodi:sides="8"
       sodipodi:cx="55.687187"
       sodipodi:cy="56.318855"
       sodipodi:r1="10.57478"
       sodipodi:r2="5.2873902"
       sodipodi:arg1="0.47788294"
       sodipodi:arg2="0.87058202"
       inkscape:rounded="0.5"
       inkscape:randomized="0.129"
       d="m 65.047164,60.016711 c -1.043329,2.898852 -4.58494,-0.903394 -7.278213,0.616665 -2.693273,1.520059 3.29224,6.067166 0.367555,6.407593 -2.924685,0.340427 0.630911,-6.090507 -2.288698,-6.186604 -2.919608,-0.0961 -2.860116,5.86842 -5.572988,4.998628 -2.712872,-0.869792 3.356668,-2.945529 1.635993,-5.647407 -1.720675,-2.701878 -5.056026,0.874989 -6.446919,-1.853343 -1.390894,-2.728333 5.701768,1.667645 5.601562,-1.509319 -0.100206,-3.176963 -5.011127,-1.483341 -3.626569,-4.163713 1.384558,-2.680371 2.490677,3.259555 4.40284,0.852349 1.912162,-2.407207 -3.184342,-6.105625 -0.367555,-6.407593 2.816787,-0.301968 1.987545,4.704949 5.164071,4.71759 3.176526,0.01264 0.335826,-7.989334 2.697614,-6.257907 2.361789,1.731427 -0.301995,4.45675 1.239381,6.906686 1.541377,2.449936 5.616663,-1.066225 6.44692,1.853343 0.830256,2.919568 -5.402008,-1.40305 -5.601563,1.509319 -0.199555,2.912368 4.669898,1.264861 3.626569,4.163713 z"
       inkscape:transform-center-x="-0.94540916"
       inkscape:transform-center-y="0.54557406"
       transform="matrix(-0.2826781,-0.253817,0.253817,-0.2826781,60.377101,79.593343)" />
  </g>
</svg>
